<?xml version="1.0" encoding="UTF-8"?><svg id="a" xmlns="http://www.w3.org/2000/svg" viewBox="0 0 1000 1000"><defs><style>.b{fill:none;}.c{fill:#fff;}</style></defs><g><g><path class="b" d="M395.93,88.43c-2.68-2.82-6-4.19-10.15-4.19-2.23,0-4.73,.41-7.44,1.21-6.91,2.03-12.11,7.59-13.25,14.17-.93,4.96-.16,11.18,2.49,20.2,2.06,6.99,4.31,11.66,7.07,14.7,2.89,3.05,7.07,4.73,11.78,4.73,2.04,0,4.11-.31,6.16-.91,7.64-2.26,12.31-7.19,13.52-14.25,.65-3.64,.9-9.77-1.6-18.29-2.39-8.11-5.12-13.63-8.59-17.36Z"/><path class="b" d="M715.02,125.09c-3.01-1.73-6.37-2.64-9.7-2.64-3.51,0-6.95,1.02-9.68,2.87-4.24,2.76-8.2,7.62-12.86,15.76-3.57,6.2-5.44,11.19-5.72,15.27-.3,6.12,3.31,11.95,9.64,15.58,6.84,3.92,13.74,3.89,19.64-.08,3.09-2.05,7.69-6.11,12.08-13.8,4.21-7.36,6.31-13.14,6.6-18.2,.28-5.92-2.99-10.75-9.99-14.76Z"/><path class="b" d="M110.16,429.04c1.51-5.74,3.7-15.07,4.95-20.81-6.59,.79-19.45,2.38-29.13,3.64,6.91,4.75,12.22,8.57,17.35,12.27,2.28,1.64,4.51,3.25,6.83,4.9Z"/><path class="b" d="M125.39,310.85c-2.56-1.21-4.43-1.71-6.44-1.71h-.28c-3.01,.07-5.64,1.74-9.44,9.84-2.57,5.44-3.52,7.48-3.53,7.84,.11,.14,1.14,.62,2.43,1.23l19.63,9.26c.55-1.01,1.74-3.36,2.85-5.71,2.76-5.84,4.88-11.8,1.74-15.79-1.5-1.89-3.58-3.38-6.95-4.96Z"/><path class="c" d="M139.59,385.8c-.66,0-.83,.35-.88,.54-1.49,5.94-1.96,6.69-2.93,7.32-1.13,.72-2.59,1.2-7.41,1.82-30.3,4.18-43.75,5.94-53.25,6.95-.95,.03-1.28,.85-1.68,2.79-.21,.98-.52,2.72-.23,3.46l.07,.18,.16,.11c14.59,9.52,27.15,18.65,43.91,31.19,3.81,2.95,5.46,4.5,6.31,5.95,1.04,1.5,1.1,2.99,.32,7.98l-.05,.31,.18,.22c.4,.49,2.74,.85,3.13,.85,.57,0,.72-.35,.76-.54,1.21-6.67,3.28-16.54,4.64-21.52l.04-.34-.18-.23c-.43-.53-2.55-.97-3.12-.97-.63,0-.78,.38-.81,.51-1.46,5.16-1.98,6.28-2.95,6.28-.17,0-.37-.03-.63-.08-1-.22-2.49-1.07-4.05-1.96-2.41-1.52-3.91-2.56-6.21-4.28-.28-.19-.25-.3-.23-.43,.47-2.69,1.09-5.55,1.81-8.86,1.52-7.1,2.96-12.89,3.59-15.31,4.62-.67,7.7-.96,9.97-1.17l.29-.03c.65-.08,1.17-.12,1.6-.12,1.11,0,1.28,.27,1.37,.42,.26,.4,.4,1.13-.45,6.41l-.03,.33,.18,.22c.43,.52,2.43,.82,2.99,.82,.73,0,.95-.33,1.01-.62,.76-4.17,1.3-6.64,2.05-10.04,.29-1.31,.61-2.75,.98-4.49,.59-2.72,1.05-4.56,1.59-6.7,.39-1.54,.82-3.23,1.36-5.52l.04-.34-.18-.23c-.44-.55-2.6-.88-3.09-.88Zm-24.48,22.44c-1.25,5.74-3.44,15.06-4.95,20.81-2.32-1.65-4.55-3.26-6.83-4.9-5.13-3.7-10.44-7.52-17.35-12.27,9.68-1.26,22.54-2.85,29.13-3.64Zm12.14,46.61h0Z"/><path class="c" d="M168.34,304.47h-.21c-.78,0-2.58,1.3-2.99,2.04-.24,.44-.12,.76,0,.95,2.92,4.03,4.25,6.4,3.41,8.17-.52,1.11-1.21,1.72-3.3,1.72-1.79,0-4.49-.43-9.3-1.47-8.25-1.75-13.15,1.04-18.6,6.64,2.35-9.14,.62-19.77-7.45-23.57-2.81-1.33-5.92-1.51-8.6-.54-5.96,2.14-11.17,7.86-15.48,17-1.28,2.7-2.83,6.08-4.21,9.07-.92,1.99-1.75,3.8-2.37,5.13-1.61,3.41-3.13,6.63-6.6,13.76-.08,.17-.18,.52,.09,.94,.51,.81,2.33,1.6,3.1,1.6,.53,0,.73-.31,.79-.44,2.82-5.81,3.77-7.77,4.06-7.87,.04-.01,.09-.03,.18-.03,.51,0,1.69,.43,3.5,1.29,.49,.23,1.91,.89,3.91,1.82,3.53,1.63,8.88,4.11,14.18,6.59,1.2,.57,2.77,1.33,5,2.41,3.62,1.75,8.98,4.34,17.38,8.37,2.54,1.2,2.95,1.65,2.98,1.69,.02,.75-2.44,6.38-3.25,8.22-.11,.23-.09,.5,.06,.74,.44,.7,2.65,1.64,3.39,1.64,.48,0,.66-.29,.72-.42,4.94-11.19,12.06-25.59,12.8-26.92,.1-.22,.08-.48-.06-.71-.39-.62-2.52-1.69-3.36-1.69-.49,0-.69,.3-.74,.4-3.2,6.04-4.32,8.08-4.61,8.22-.21,0-.81-.28-1.88-.77-.65-.31-1.99-.97-3.75-1.83-4.09-2-10.26-5.01-15.27-7.37l3.65-7.75c1.91-4.06,4.12-5.58,8.14-5.58,1.64,0,3.62,.26,6.04,.79,8.16,1.84,12.07,2.05,15.62,.78,3.24-1.17,5.74-3.57,7.41-7.12,2.05-4.34,.77-9.31-4.03-15.63l-.36-.26Zm-37.74,27.12c-1.11,2.34-2.3,4.69-2.85,5.71l-19.63-9.26c-1.29-.61-2.32-1.09-2.43-1.23,0-.36,.96-2.4,3.53-7.84,3.8-8.09,6.43-9.76,9.44-9.83h.28c2.02,0,3.88,.49,6.44,1.7,3.37,1.59,5.45,3.07,6.95,4.96,3.13,3.98,1.01,9.94-1.74,15.79Z"/><path class="c" d="M216.88,253.73c-4.25-3.74-12.23-10.21-17.85-14.63-.13-.1-.3-.16-.47-.16-.81,0-1.75,1.31-2.01,1.76-.12,.21-.48,.84-.14,1.42,8.79,10.96,10.23,14.27,10.47,16.06,.27,2.05-1.26,4.47-6,10.69-3.16,4.14-5.03,6.3-5.47,6.4-.55-.1-3.09-2.03-6.6-4.7l-.56-.42c-16.89-12.88-19.64-14.99-24.51-18.82-4.98-3.89-9.12-7.15-9.4-7.68,0-.51,2.32-3.58,5.11-7.24,.16-.21,.18-.48,.05-.74-.25-.52-2.26-2.27-2.96-2.27l-.35,.02-9.01,11.82c-1.47,1.93-3.1,3.98-4.68,5.96-1.47,1.85-2.91,3.66-4.21,5.35-.07,.1-.22,.37-.03,.74,.27,.53,2.25,2.25,2.95,2.25l.35-.02,.18-.24c1.4-1.84,4.69-6.14,5.26-6.21,.79,.04,5.64,3.75,7.46,5.14,5.79,4.42,11.45,8.87,16.92,13.18,3.81,3,7.63,6,11.52,9.02l.76,.6c3.02,2.39,4.69,3.7,4.82,4.05-.03,.27-.83,1.37-2.3,3.38-.67,.92-1.52,2.09-2.57,3.55l-.22,.39,.17,.34c.24,.5,2.33,2.33,3.04,2.33l.35-.02,.18-.25c3.66-4.96,7.09-9.46,13.9-18.37,6.23-8.18,11.01-14.43,15.82-20.42,.4-.52,.57-.98,.51-1.41-.05-.34-.23-.63-.51-.84Z"/><path class="c" d="M260.2,183.63c-.14-.17-.35-.26-.58-.26-.84,0-2.23,1.43-2.54,1.91-.07,.11-.29,.44-.1,.86,5.74,10.24,6.78,14.8,6.63,16.8-.16,1.43-.83,2.63-4.24,5.59l-7.75,6.74c-4.73,4.11-5.9,4.55-6.15,4.56-.56-.2-3.53-3.54-10.4-11.44l-.65-.75c-1.77-2.04-3.93-4.54-5.53-6.49,1.37-1.39,2.95-2.76,4.35-3.99l.16-.14c3.79-3.29,5.15-4.29,5.84-4.29,.04,0,.08,0,.18,.02,.94,.06,2.61,1.07,8.27,5.99l.23,.23h.28c.72,0,2.3-1.67,2.54-2.21,.21-.45,.02-.75-.1-.89-4.94-5-11.69-12.91-16.49-18.67-.15-.17-.35-.26-.59-.26-.78,0-1.89,1.11-2.21,1.49-.41,.49-.57,.88-.51,1.23l.02,.14,.09,.12c3.64,4.9,4.29,6.35,4.23,7.29-.2,1.46-1.78,3.46-4.85,6.13l-.34,.3c-2.35,2.03-3.01,2.6-4.45,3.76l-6.95-8c-2.2-2.54-6.69-7.7-7.29-8.75,.43-.6,2.06-2.02,7.23-6.51,7.48-6.5,8.25-7.02,10.66-6.84,1.93,.13,5.83,1.46,13.38,6.98,.1,.08,.27,.17,.52,.17,.78,0,1.98-1.02,2.35-1.45,.18-.21,.38-.49,.33-.83l-.02-.15-.09-.12c-2.02-2.68-4.47-5.88-6.93-9.07-1.64-2.14-3.29-4.28-4.77-6.22-.13-.2-.52-.8-1.18-.8-.31,0-.6,.13-.92,.41-6.33,6-12.22,11.14-17.93,16.11l-.47,.41c-3.52,3.05-16.71,14.38-20.32,17.25-.13,.12-.33,.39-.14,.88,.15,.39,1.5,2.57,2.43,2.57h0l.17-.02,.14-.11c3.83-3.05,6.14-4.82,6.62-4.83,.4,.12,1.97,1.88,5.09,5.37l1.05,1.17c3.48,4.01,6.66,7.63,9.67,11.04,2.65,3.02,5.17,5.87,7.62,8.7,8.98,10.35,10.48,12.7,10.57,13.12-.03,.39-2.42,2.6-6.34,6.19-.08,.07-.34,.34-.16,.8,.12,.31,1.96,2.9,2.7,2.9h.25l.17-.16c6.62-6.01,10.22-9.15,19.66-17.36l.86-.74c7.53-6.53,12.98-11.26,20.23-17.43,.29-.25,1.06-.92,.28-1.81-3.95-4.82-9.09-11.06-13.77-16.61Z"/><path class="c" d="M332.33,161.44h-.16l-.12,.06c-6.59,3.1-8.71,4.09-9.46,4.09-.06,0-.12,0-.23-.04-.52-.1-1.34-1.42-2.86-4.16-6.1-11-11.45-20.83-17.34-31.87l-.96-1.81c-2.71-5.13-3.84-7.26-4.01-7.75,.27-.21,.99-.68,2.82-1.69,3.79-2.1,5.74-2.89,7.22-2.89,.36,0,.7,.05,1.04,.14,3.2,.92,11.16,8.93,13.79,11.58l.27,.2h.25c.6,0,2.17-.85,2.53-1.46,.15-.25,.16-.53,.04-.76-3.94-7.46-6.72-12.15-9.94-17.58l-.74-1.25c-.41-.77-1.22-.86-2.36-.07-7.81,4.8-15.47,9.24-22.75,13.19-8.06,4.36-20.45,11.02-22.79,12.2-.36,.2-.62,.53-.74,.96-.14,.49-.08,1.07,.12,1.42,.71,1.38,1.42,2.76,2.16,4.19,2.14,4.13,4.56,8.8,7.6,15.05,.06,.11,.25,.38,.69,.38,.7,0,2.12-.83,2.48-1.27,.21-.26,.21-.49,.18-.65-1.48-6.77-2.68-15.47-1.81-18.56,.54-1.86,1.51-3.14,5.55-5.39,1.01-.56,3.58-1.99,4.23-2.16,.36,.39,1.43,2.32,3.81,6.59,1.72,3.11,3.28,5.9,4.75,8.52,4.6,8.22,8.24,14.72,13.03,24.14,3.02,5.92,2.88,7.23,2.9,7.23h0c-.27,.39-3.35,2.3-8.75,5.62-.15,.08-.49,.34-.33,.97,.11,.44,1.23,2.83,2.16,2.83h.21l.14-.1c9.53-5.73,17.7-10.42,29.02-16.11,.23-.13,.47-.42,.31-1.06,0-.03-.99-2.75-1.94-2.75Z"/><path class="c" d="M403.23,83.36c-7.9-4.2-16.06-5.11-24.22-2.7-10.4,3.06-16.92,8.27-21.83,17.44-4.02,7.38-5.09,15.82-2.93,23.16,2.73,9.23,7.07,15.05,14.08,18.87,5.02,2.73,10.91,4.23,16.57,4.23,3.05,0,6.04-.43,8.88-1.26,8.49-2.51,15.76-8.36,19.95-16.05,4.35-7.98,5.49-17.66,3.05-25.9-2.32-7.88-7.26-14.36-13.55-17.77Zm2.89,40.72c-1.21,7.06-5.89,11.99-13.52,14.25-2.05,.6-4.12,.91-6.16,.91-4.71,0-8.9-1.68-11.78-4.73-2.76-3.03-5.01-7.7-7.07-14.7-2.65-9.01-3.42-15.24-2.49-20.2,1.14-6.57,6.34-12.13,13.25-14.17,2.71-.8,5.21-1.21,7.44-1.21,4.15,0,7.47,1.37,10.15,4.19,3.47,3.73,6.19,9.25,8.59,17.36,2.51,8.52,2.26,14.65,1.6,18.29Z"/><path class="c" d="M505.92,63.22h0c-3.05,.39-6.05,.68-8.9,.86-3.68,.23-10.8,.42-14.22,.51l-.74,.02c-.92,.07-.87,1.48-.85,1.94,.05,1.44,.41,2.16,1.07,2.16,3.67,.03,7.53,.15,8.26,.8,1.42,1.25,2.35,6.93,3.11,18.96,.22,3.61,.42,7.2,.62,10.72,.17,3.08,.34,6.11,.52,9.05-4.41-5.55-8.9-11.14-13.25-16.55-5.88-7.32-11.44-14.23-16.77-21.02-2.79-3.65-3.61-4.54-4.42-4.75l-.1-.03-3.76,.31c-3.41,.28-6.11,.5-8.27,.64-1.24,.08-2.49,.14-3.83,.2-1.54,.07-3.21,.15-5.12,.27-.66,.04-.98,.8-.94,2.27,.04,1.34,.39,2.02,1.07,2.02h0c5.43-.14,8.17,.29,9.46,1.53l.08,.06c.31,.21,.38,.28,.43,.99,.47,7.47,1.11,15.29,1.67,22.19,.47,5.67,.9,11.02,1.17,15.2,.51,8.04-.36,11.2-.98,11.83-.53,.6-2.27,1-8.03,1.83-.8,.03-.78,1.11-.77,1.57,.04,1.8,.4,2.72,1.08,2.72h.07c4-.47,6.5-.72,11.7-1.04,5.33-.35,8.34-.53,13.26-.54,.82-.05,.87-1.19,.89-1.62,.03-.76,0-2.54-.99-2.69-4.9-.3-8.44-.51-8.89-.97-.87-.77-1.32-4.54-1.75-9.96l-.54-6.18c-.89-10.12-1.81-20.58-2.43-30.1,12.58,14.94,32.88,39.87,40.21,50.45l.1,.11c.43,.38,.94,.46,1.58,.46,.24,0,.53-.01,.87-.04,2.76-.17,4.06-.37,4.02-1.46-.15-2.32-.37-4.52-.61-6.84-.28-2.73-.59-5.83-.83-9.66-.23-3.62-.37-6.65-.52-9.86-.14-3.13-.29-6.36-.53-10.16-.29-4.66-1.19-18.83,.08-20.29,.44-.59,2.59-1.05,7.31-1.94,.73-.05,.7-.95,.68-1.34-.03-.79-.2-2.64-1.27-2.64Z"/><path class="c" d="M124.48,484.05l-1.05-1.3s-.95-1.2-.51-3.05c.27-1.15,.68-1.42,3.72-3.15,.95-.36,.63-2.23,.6-2.44-.21-1.16-.72-1.4-1.15-1.4h0c-3.59,.25-7.04,.36-10.84,.36-2.13,0-4.17-.04-6.2-.07h-.1c-1.09,0-1.6,2.81-1.61,2.84-.13,.89,.22,1.18,.52,1.27,3.86,1.21,6.63,2.87,9.27,5.56,3.32,3.31,5.38,6.65,5.4,13-.03,7.35-2.85,12.76-7.96,15.23-4.24,2.15-9.43,3.1-16.91,3.1-8.7,0-14.11-1.11-19.97-4.06-2.54-1.24-8.44-5.15-8.43-14.62,.02-5.38,1.14-8.77,3.74-11.35,2.59-2.58,7.61-4.98,14.89-7.12,.94-.23,.76-2.19,.72-2.58-.03-.3-.14-1.2-.88-1.21-1.6,.03-3.73,.06-6.09,.06-3.83,0-11.06-.06-16.44-.47-.39,0-.89,.24-1.11,1.39-.04,.21-.36,2.09,.51,2.42,2.49,1.42,3.76,2.46,3.78,3.06,0,.21-.32,.86-.62,1.5-1.15,2.37-3.28,6.78-3.29,14.19-.02,8.21,3.26,15.38,10.33,22.58,6.12,6.03,14.35,9.36,23.16,9.38h.03c10.94,0,18.23-6.11,20.85-8.74,5.98-5.96,8.89-12.95,8.89-21.36,0-5.36-1.05-9.46-3.41-13.08l.19,.04Zm-26.52,42.53h0Z"/><path class="c" d="M733.73,141.62c-2.43-8.61-7.41-15.12-14.79-19.36-6.08-3.48-11.87-5.18-17.69-5.18-3.16,0-6.42,.48-9.98,1.48-8.11,2.2-14.94,7.27-18.74,13.9-4.79,8.34-5.98,15.49-3.88,23.19,2.36,8.72,7.98,16.17,15.44,20.44,5.09,2.92,10.86,4.46,16.69,4.46,2.95,0,5.88-.39,8.69-1.15,8.75-2.38,16.53-8.24,20.79-15.7,4.08-7.1,5.35-15.15,3.47-22.07Zm-8.71-1.76c-.29,5.07-2.38,10.85-6.6,18.2-4.39,7.69-8.99,11.75-12.08,13.8-5.9,3.97-12.8,4-19.64,.08-6.34-3.63-9.94-9.46-9.64-15.58,.28-4.08,2.16-9.07,5.72-15.27,4.66-8.14,8.62-13,12.86-15.76,2.74-1.85,6.18-2.87,9.68-2.87s6.68,.91,9.7,2.64c7.01,4.01,10.28,8.84,9.99,14.76Z"/><path class="c" d="M785.87,220.78c-.3-.67-1.59-2-2.44-2-.13,0-.25,.03-.44,.12-11.67,7.86-15.08,9-16.86,9.09h-.18c-2.03,0-4.38-1.79-9.98-6.86-4.83-4.36-5.89-5.7-5.92-5.97,.16-.57,2.61-3.28,5.72-6.71,13.97-15.47,16.49-18.25,20.79-22.85,4.05-4.37,7.88-8.5,8.45-8.73,.51,.06,3.38,2.62,6.77,5.68l.21,.19h.25c.74,0,2.54-2.06,2.74-2.59,.13-.35,0-.64-.16-.77l-10.79-9.76c-1.77-1.6-3.64-3.36-5.44-5.05-1.79-1.68-3.48-3.28-5.08-4.72l-.21-.17h-.24c-.76,0-2.57,2.14-2.74,2.58-.17,.44,.08,.71,.16,.78,2.83,2.56,5.73,5.25,5.76,5.76-.11,.77-4.21,5.3-5.76,7-4.86,5.38-9.75,10.63-14.48,15.7-3.32,3.57-6.65,7.14-10,10.79l-.8,.85c-2.55,2.71-3.96,4.21-4.29,4.31-.26-.05-1.3-.94-3.18-2.57-.86-.75-1.95-1.69-3.33-2.86l-.21-.16h-.22c-.77,0-2.65,2.22-2.82,2.67-.13,.35,0,.64,.17,.78,4.66,4.08,8.83,7.85,17.14,15.36l1.81,1.64c6.75,6.12,12.09,10.96,17.2,15.82,.47,.42,.9,.63,1.31,.63,.25,0,.63-.08,.94-.44,4.04-3.89,11.16-11.31,16.06-16.57,.13-.15,.32-.47,.08-.98Zm-17.09,17.38h0Z"/><path class="c" d="M835.01,281.84c-.21-.66-1.23-2.29-2.14-2.29h-.17l-.11,.05c-10.4,4.36-15.88,5.99-18.32,5.62-2.03-.3-4.03-2.54-8.62-8.7-3.88-5.23-4.65-6.75-4.63-7.03,.26-.53,3.04-2.59,6.89-5.46,16.79-12.49,19.72-14.67,24.86-18.36,5.1-3.72,9.38-6.8,9.99-6.92,.48,.15,2.69,3.09,5.54,6.91l.25,.26h.3c.72,0,2.82-1.55,3.09-2.08l.19-.43-8.93-11.98c-1.4-1.88-2.86-3.94-4.27-5.92-1.45-2.04-2.82-3.97-4.12-5.71l-.24-.28h-.32c-.66,0-2.8,1.52-3.09,2.09l-.18,.43,.22,.3c1.5,2.02,4.61,6.21,4.53,6.77-.26,.74-5.16,4.38-7,5.74-5.93,4.41-11.85,8.68-17.57,12.81-3.86,2.78-7.72,5.56-11.62,8.41l-.71,.51c-3.18,2.29-4.93,3.55-5.3,3.58-.24-.09-1.05-1.14-2.53-3.03-.72-.92-1.63-2.09-2.78-3.55l-.24-.28h-.31c-.66,0-2.89,1.59-3.17,2.16l-.17,.42,.23,.3c3.46,4.5,6.6,8.7,12.28,16.34l1.54,2.07c5.75,7.72,10.71,14.39,15.25,20.83,.44,.61,.89,.9,1.39,.9,.28,0,.55-.1,.77-.27,4.78-3.06,13.16-8.92,18.98-13.13,.18-.13,.46-.45,.24-1.11Z"/><path class="c" d="M871.45,355.89c-.06-.26-.85-2.65-1.78-2.65l-.15,.02c-6.19,1.45-11.02,2.19-14.36,2.19-1.55,0-2.77-.16-3.61-.47-1.32-.55-2.29-1.54-4.2-5.64l-4.31-9.32c-2.64-5.72-2.74-6.94-2.68-7.15,.35-.49,4.57-2.5,13.9-6.82,2.92-1.36,6.19-2.87,8.66-3.93,.94,1.7,1.81,3.56,2.7,5.47,2.22,4.79,2.75,6.28,2.44,6.97-.33,.89-1.76,2.21-8.06,6.28-.15,.07-.48,.32-.33,.94,.05,.22,.99,2.77,1.97,2.77h.19l.14-.08c6.16-3.36,15.63-7.64,22.51-10.64,.21-.1,.54-.37,.43-1.09-.11-.67-.93-2.68-1.88-2.79l-.14-.02-.13,.05c-4.03,1.51-6.25,2.15-7.4,2.15-.3,0-.55-.04-.77-.13-1.33-.56-2.81-2.64-4.52-6.35l-.22-.47c-1.29-2.77-1.65-3.55-2.35-5.25l9.61-4.45c2.81-1.3,9.24-4.29,10.43-4.56,.44,.55,1.31,2.43,4.08,8.41l.16,.34c4.17,8.99,4.45,9.9,3.63,12.14-.96,2.58-4.67,6.46-10.43,10.91-.47,.34-.37,1.01-.26,1.47,0,.02,.52,2.06,1.39,2.18l.15,.02,.14-.05c3.08-1.17,6.76-2.62,10.45-4.07,2.57-1.01,5.15-2.02,7.48-2.93,.35-.11,.85-.31,1.06-.79,.14-.33,.12-.7-.09-1.13-4.24-8.17-7.84-15.97-10.74-22.24-1.92-4.14-9.19-20.09-10.93-24.3-.06-.12-.24-.39-.69-.39s-3.12,.74-3.26,1.64l-.03,.17,.06,.16c1.84,4.44,2.95,7.28,2.8,7.69-.24,.36-2.38,1.39-7.09,3.65l-.9,.43c-4.97,2.3-9.45,4.41-13.69,6.4-3.49,1.64-6.8,3.2-10.07,4.72-12.2,5.65-14.99,6.5-15.51,6.52-.38-.14-1.85-3.05-4.2-7.79-.04-.1-.21-.41-.66-.41-.64,0-3.21,1.12-3.52,1.61l-.19,.32,.15,.3c3.71,7.57,5.68,11.83,10.02,21.15l2.29,4.94c3.94,8.52,6.79,14.67,10.5,22.9,.15,.32,.42,.92,1.09,.92,.18,0,.37-.05,.57-.14,6.53-2.81,13.44-5.78,19.77-8.61,.22-.1,.58-.39,.41-1.18Z"/><path class="c" d="M894.16,437.13c.35,0,.45,.04,.46,.04,.44,.4,1.57,4.46,2.17,6.65l.06,.22,.2,.12c.15,.1,.34,.14,.59,.14,.58,0,2.74-.41,3.18-.98l.21-.3-.08-.29c-2.91-10.43-4.18-16.12-6.4-26.64-.06-.3-.3-.65-1.1-.65s-2.46,.35-2.93,.93c-.16,.19-.21,.42-.17,.65,.42,1.93,1.72,7.8,1.49,8.48-.28,.35-.97,.79-6.03,1.91-4.45,.99-6.5,1.34-7.81,1.34-.41,0-.77-.03-1.13-.1-3.23-.85-7.32-4.57-8.67-10.72-1.45-6.51-.09-11.5,4.03-14.84,3.35-2.73,7.15-4.58,18.58-7.12,5.21-1.15,9.23-1.69,12.67-1.69,2.54,0,4.83,.29,7.22,.91,5.86,1.37,10.07,5.97,11.54,12.62,.95,4.29,.64,7.59-.96,10.09-1.77,2.79-6.01,6.37-11.89,10.03-.46,.23-.56,.82-.32,1.85,.3,1.25,.75,1.89,1.33,1.89l.15-.02c5.39-1.1,13.46-2.44,19.92-2.88l.11-.02c.29-.07,.46-.3,.53-.68,0-.02,.24-2.21-.44-2.65l-.1-.06c-3.78-1.54-4.42-2.74-4.52-3.18-.06-.3,.12-1.14,.31-2.02,.58-2.68,1.55-7.17,.21-13.22-1.74-7.87-6.27-14.23-13.47-18.92-5.92-3.77-11.92-5.61-18.33-5.61-2.5,0-5.09,.29-7.69,.87-8.52,1.88-15.1,6.32-19.58,13.2-4.09,6.42-5.5,14.3-3.87,21.63,1.5,6.74,5.53,10.68,7.94,13.04,.91,.89,1.76,1.73,1.86,2.16,.16,.71-2.04,3.13-3.98,5.27l-.11,.16c-.19,.44,.01,1.12,.61,2.04,.71,1.08,1.04,1.09,1.25,1.08l.17-.02c2.24-.59,5.62-1.45,8.99-2.2,7.95-1.76,12.21-2.55,13.8-2.55Z"/><path class="c" d="M935.64,497.36v-.2c-.01-4.9,.04-22.14,.22-26.64,0-.28-.01-.94-2.63-.94-.87,0-1.26,.12-1.46,.43l-.09,.14v.16c-.2,4.92-.37,7.84-.68,8.15-.37,.23-2.85,.27-7.81,.35l-1.16,.02c-5,.02-9.57,.05-13.89,.09-4.3,.04-8.35,.07-12.33,.08h-2c-12.01,0-14.47-.38-14.83-.57-.28-.28-.4-3.69-.55-8.82v-.29l-.19-.18c-.14-.14-.37-.38-2.31-.38-1.33,0-2.08,.03-2.1,.76,.23,9.27,.25,14.23,.28,26.21,.03,10.73,.04,17.96-.03,27.83,0,.38,.01,1.39,1.19,1.39,7.49,.19,14.78,.37,21.55,.44h.01c.48,0,.77-.38,.88-1.11,0-.03,.33-2.65-.68-2.98-11.48-2.34-15.61-4.54-17.04-5.95-1-1.08-1.44-2.32-1.45-6.87l-.03-10.26c-.02-6.31,.41-7.45,.57-7.62,.53-.3,5.2-.37,15.46-.4h2.48c2.33,0,4.95,0,7.03,.07,.16,2.05,.16,4.27,.16,6.09,.02,5.22-.13,6.86-.7,7.35-.66,.67-2.51,1.26-9.93,2.35l-.41,.05-.17,.3c-.33,.58-.18,2.78,.15,3.35,.21,.36,.5,.39,.68,.4,3.64-.25,8.57-.37,14.66-.37,3.13,0,6.57,.03,10.23,.1,.23,0,.66-.11,.85-.83,.16-.59,.3-2.78-.54-3.29l-.12-.08h-.15c-6.09-.46-7.61-.91-8.27-1.57-.97-1.1-1.46-3.61-1.48-7.67v-1.13c0-2.56,0-3.44,.07-5.14l12.71-.03c2.5,0,8.21,0,9.25,.21,.18,.72,.19,3,.2,9.72,.03,9.91-.1,10.85-1.77,12.53-1.37,1.37-4.92,3.45-14.04,5.56-.62,.12-.78,.88-.83,1.13,0,.02-.42,2.16,.31,2.66l.14,.09h.17c3.42,.24,7.54,.47,11.63,.71,2.62,.15,5.22,.3,7.58,.44,.63,.09,1.04-.02,1.33-.31,.23-.23,.35-.56,.34-1.01-.42-8.88-.44-16.82-.46-24.5Zm-60.36,26.98h0Z"/><path class="c" d="M648.14,88.88c-.36,0-.63,.11-.77,.27-2.08,1.96-3.43,2.89-4.02,2.71-.2-.06-.73-.55-1.25-1.03-1.93-1.79-5.52-5.12-12.61-7.29-2.67-.82-5.42-1.24-8.16-1.24-5.21,0-10.59,1.48-16.46,4.52-7.54,4.09-13.13,10.98-15.73,19.42-3.2,10.48,.52,19.24,2.26,22.51,3.96,7.45,9.79,12.28,17.83,14.75,5.37,1.64,9.58,1.79,13.92,.44l-.02,.08,1.07-.42s.42-.16,1.05-.16c.69,0,1.36,.19,2,.56,1.02,.58,1.16,1.05,1.93,4.47,.06,1,1.91,1.31,2.57,1.31,.91,0,1.17-.44,1.25-.72,1.52-6.51,3.04-11.29,4.72-16.42,.06-.15,.1-.41-.08-.72-.37-.63-2.08-1.91-2.86-1.91-.28,0-.52,.13-.65,.33-2.28,3.33-4.68,5.49-8.03,7.23-3.05,1.63-5.5,2.32-8.21,2.32-1.78,0-3.67-.31-5.8-.96-7.04-2.18-11.39-6.46-12.25-12.06-.82-4.71-.21-9.97,1.98-17.07,2.51-8.27,5.14-13.13,9.7-17.93,1.63-1.74,5.21-4.67,10.87-4.67,1.8,0,3.68,.3,5.59,.89,5.12,1.58,8.04,3.64,9.75,6.89,1.7,3.19,2.53,8.69,2.45,16.32,0,.14,.03,.36,.24,.57,.47,.49,1.93,.91,2.56,.91s.82-.38,.87-.55c1.46-5.16,4.51-15.11,6.97-21.42,.05-.16,.1-.47-.15-.82-.45-.62-1.78-1.15-2.55-1.15Z"/></g><g><path class="c" d="M129.51,617.95c.47-.17,1.01,.12,1.18,.59l.43,1.19-11.36,25.53,.02,.05,16.84-6.1c.47-.17,1.04,.05,1.23,.58l2.06,5.69c.17,.47-.1,1.06-.58,1.23l-31.93,11.56c-.47,.17-1.01-.12-1.18-.59l-.27-.76c-.05-.14-.05-.57,.01-.7l12.05-25.56-.02-.05-17.69,6.41c-.47,.17-1.04-.05-1.23-.58l-2.04-5.64c-.17-.47,.1-1.06,.57-1.23l31.91-11.61Z"/><path class="c" d="M155.68,677.92c4.64,8.96,1.14,19.86-7.82,24.51-8.96,4.64-19.8,1.16-24.44-7.8-4.64-8.96-1.21-19.77,7.75-24.41,8.96-4.64,19.86-1.25,24.5,7.71Zm-25.09,13c2.55,4.93,8.67,6.87,13.56,4.34,4.93-2.55,6.92-8.7,4.36-13.62-2.53-4.88-8.7-6.8-13.62-4.25-4.88,2.53-6.83,8.65-4.3,13.53Z"/><path class="c" d="M171.79,709.2c.42-.29,1.02-.21,1.33,.25l8.53,12.44c3.42,4.99,2.18,11.84-2.77,15.23-3.83,2.62-8.65,2.2-12.58-.43l-6.66,12.94c-.34,.66-1.21,.83-1.69,.12l-3.79-5.53c-.23-.33-.19-.73-.08-.92l7.23-13.09-1.97-2.87-10.61,7.27c-.42,.29-1.05,.17-1.33-.25l-3.39-4.95c-.31-.46-.17-1.05,.25-1.33l27.55-18.88Zm-2.95,20.68c1.17,1.71,3.75,2.08,5.5,.88,1.75-1.2,2.16-3.62,1-5.33l-4.22-6.16-6.49,4.45,4.22,6.16Z"/><path class="c" d="M196.66,753.69l-4.69-5.48c-.36-.42-.28-1.02,.11-1.35l4.18-3.57c.38-.33,.99-.32,1.35,.11l14.55,17.03c.36,.42,.28,1.02-.11,1.35l-4.18,3.57c-.38,.33-.99,.32-1.35-.11l-4.69-5.48-20.48,17.5c-.38,.33-1.02,.28-1.35-.11l-3.93-4.6c-.33-.38-.28-1.02,.11-1.35l20.48-17.5Z"/><path class="c" d="M223.52,774c.34-.37,.99-.39,1.35-.05l4.39,4.1c.41,.38,.39,.99,.05,1.35l-8.68,9.29,10.54,9.85,8.68-9.29c.34-.37,.95-.42,1.35-.05l4.39,4.1c.37,.34,.39,.99,.05,1.35l-22.8,24.41c-.34,.37-.99,.39-1.35,.05l-4.39-4.1c-.41-.38-.39-.99-.05-1.36l9.06-9.7-10.54-9.85-9.06,9.7c-.34,.37-.95,.42-1.35,.05l-4.39-4.1c-.37-.34-.39-.99-.05-1.35l22.8-24.41Z"/><path class="c" d="M261.48,807.42c.3-.41,.89-.53,1.34-.2l16.81,12.39c.45,.33,.5,.93,.2,1.34l-3.26,4.43c-.3,.41-.89,.53-1.34,.2l-11.25-8.29-4.31,5.85,9.26,6.83c.41,.3,.5,.93,.2,1.34l-3.26,4.43c-.3,.41-.93,.5-1.34,.2l-9.26-6.83-7.27,9.87c-.3,.41-.93,.5-1.34,.2l-4.79-3.53c-.45-.33-.5-.93-.2-1.34l19.82-26.88Z"/><path class="c" d="M294.65,830.43c.26-.43,.89-.58,1.32-.32l5.17,3.15c.43,.26,.58,.89,.32,1.32l-17.36,28.53c-.26,.43-.89,.58-1.32,.32l-5.17-3.15c-.43-.26-.58-.89-.32-1.32l17.36-28.53Z"/><path class="c" d="M319.43,844.76c.22-.45,.78-.68,1.28-.44l18.75,9.2c.5,.24,.66,.83,.44,1.28l-2.42,4.94c-.22,.45-.78,.68-1.28,.44l-12.54-6.16-2.76,5.62,10.33,5.07c.45,.22,.66,.83,.44,1.28l-2.42,4.94c-.24,.5-.83,.66-1.28,.44l-10.33-5.07-3,6.11,12.54,6.16c.5,.25,.66,.83,.44,1.28l-2.42,4.94c-.22,.45-.79,.68-1.28,.44l-18.75-9.2c-.5-.24-.66-.83-.44-1.28l14.72-29.98Z"/><path class="c" d="M357.06,861.96c.17-.47,.71-.76,1.23-.57l5.63,2.08c.47,.18,.74,.76,.57,1.23l-9.35,25.27,11.26,4.17c.52,.19,.74,.76,.57,1.23l-1.91,5.16c-.17,.47-.71,.76-1.23,.57l-17.79-6.58c-.52-.19-.74-.76-.57-1.23l11.59-31.32Z"/><path class="c" d="M392.53,874.21c.12-.49,.62-.83,1.11-.71l11.95,2.96c9.45,2.34,15.28,11.94,12.96,21.34-2.35,9.5-11.99,15.27-21.44,12.93l-11.95-2.96c-.49-.12-.77-.66-.65-1.15l8.02-32.42Zm5.88,29.15c5.53,1.37,10.63-2,12.01-7.58,1.37-5.53-1.57-10.88-7.1-12.25l-4.7-1.16-4.91,19.83,4.7,1.16Z"/><path class="c" d="M436.61,909.52c2.44,.37,5.59,2.79,4.73,8.43-1.05,6.88-6.12,9.68-7.77,10.75-.45,.29-1.07,.3-1.4-.21l-.86-1.36c-.33-.51-.25-1.06,.31-1.38,.67-.41,4.95-2.66,5.68-7.09,0,0-1.18,.38-2.68,.15-2.49-.38-4.32-2.8-3.93-5.35,.39-2.54,2.87-4.41,5.91-3.95Z"/><path class="c" d="M491.6,888.49c.04-.45,.49-.82,.89-.82h.81c.25-.02,.71,.18,.87,.48l12.06,21.6h.1l11.35-21.99c.15-.31,.6-.51,.85-.52h.81c.4-.02,.86,.33,.92,.78l6.25,33.81c.11,.65-.33,1.12-.94,1.13l-5.95,.1c-.45,0-.91-.39-.97-.79l-2.52-15.55h-.1l-8.21,16.48c-.15,.3-.6,.56-.85,.57h-.91c-.3,.02-.71-.23-.87-.53l-8.79-16.2h-.1l-1.96,15.62c-.04,.41-.44,.82-.95,.82l-5.95,.1c-.61,0-1.07-.44-.98-1.09l5.15-33.99Z"/><path class="c" d="M544.11,886.51c-.06-.5,.33-1.01,.83-1.07l6.01-.74c.5-.06,1.01,.33,1.07,.83l4.08,33.14c.06,.5-.33,1.01-.83,1.07l-6.01,.74c-.5,.06-1.01-.33-1.07-.83l-4.08-33.14Z"/><path class="c" d="M572.16,882.03c-.11-.49,.24-.99,.73-1.1l1.23-.28,23.94,14.4h.05l-3.99-17.47c-.11-.49,.18-1.02,.72-1.15l5.9-1.35c.49-.11,1.04,.23,1.15,.72l7.57,33.1c.11,.49-.24,.99-.73,1.1l-.79,.18c-.15,.03-.57-.02-.7-.1l-23.89-15.08h-.05l4.19,18.36c.11,.49-.18,1.02-.72,1.15l-5.85,1.34c-.49,.11-1.04-.23-1.15-.72l-7.62-33.09Z"/><path class="c" d="M620.96,869.53c-.18-.47,.11-1.01,.58-1.18l1.18-.44,25.61,11.15,.05-.02-6.23-16.79c-.18-.47,.04-1.04,.56-1.23l5.67-2.11c.47-.18,1.06,.09,1.23,.56l11.82,31.82c.18,.47-.11,1.01-.58,1.19l-.76,.28c-.14,.05-.57,.05-.7,0l-25.65-11.84-.05,.02,6.55,17.64c.18,.47-.04,1.04-.57,1.23l-5.63,2.09c-.47,.17-1.06-.09-1.23-.57l-11.87-31.81Z"/><path class="c" d="M679.33,873.52c2.36-1.14,5.33-.1,6.46,2.26,1.12,2.32,.06,5.24-2.31,6.37-2.32,1.12-5.21,.1-6.33-2.22-1.14-2.36-.14-5.3,2.17-6.42Z"/><path class="c" d="M708.86,828.36c-.28-.42-.2-1.02,.26-1.33l17.3-11.69c.46-.31,1.05-.16,1.33,.26l3.08,4.56c.28,.42,.2,1.02-.26,1.33l-11.58,7.82,3.5,5.18,9.53-6.44c.42-.28,1.05-.16,1.33,.26l3.08,4.56c.31,.46,.16,1.05-.26,1.33l-9.53,6.44,3.81,5.64,11.58-7.82c.46-.31,1.05-.16,1.33,.26l3.08,4.56c.28,.42,.2,1.02-.26,1.33l-17.3,11.69c-.46,.31-1.05,.16-1.33-.26l-18.7-27.67Z"/><path class="c" d="M759.94,828.24l-.87-4.73c-.11-.76,.69-1.3,1.12-1.33,.22-.05,4.72-.34,7.27-2.48,1.55-1.3,1.86-3.2,.72-4.56-1.36-1.62-3.75-1.73-7.25-.57-4.43,1.47-10.77,2.38-14.66-2.25-3.21-3.83-3.47-10.19,2.48-15.18,4.02-3.37,8.83-3.92,10.7-4.04,.69-.12,1.2,.64,1.27,1.04l.52,4.63c.09,.65-.32,1.58-.89,1.6-.51,.1-5.11,.34-7.47,2.32-1.39,1.17-1.66,2.97-.78,4.01,1.2,1.43,3.27,1.54,7.36,.22,4.02-1.33,10.79-2.99,15.2,2.27,3.34,3.98,3.27,10.88-2.41,15.65-5.02,4.21-9.56,4.46-11.19,4.32-.71-.06-.96-.12-1.1-.92Z"/><path class="c" d="M779.87,779.37l-5.04,5.16c-.39,.4-.99,.37-1.36,.02l-3.93-3.85c-.36-.35-.4-.96-.01-1.36l15.66-16.01c.39-.4,1-.37,1.36-.01l3.93,3.84c.36,.35,.4,.96,.01,1.36l-5.04,5.16,19.25,18.84c.36,.35,.37,.99,.01,1.36l-4.23,4.33c-.35,.36-.99,.37-1.36,.01l-19.25-18.84Z"/><path class="c" d="M822.51,736.09l-2.84,3.92c-.3,.41-.9,.47-1.31,.17l-2.57-1.86c-.16-.12-.4-.48-.44-.69l-.34-9.34,2.72-3.76c.3-.41,.9-.47,1.31-.17l26.23,18.99c.41,.3,.54,.89,.24,1.3l-3.28,4.54c-.33,.45-.93,.51-1.34,.21l-18.39-13.31Z"/><path class="c" d="M846.14,711.83l-.13-.08c-1.96,1.13-5.95,2.51-9.38,.48-4.86-2.88-5.37-9.05-2.23-14.34,3.27-5.51,8.92-8.02,13.78-5.14,3.3,1.96,3.95,6.1,4.03,8.43l.17,.1c2.24-1.31,6.7-3.18,10.43-.97,4.73,2.8,5.82,9.08,1.96,15.59-3.73,6.29-9.76,8.35-14.49,5.54-3.82-2.26-4.16-8.51-4.15-9.62Zm-1.66-12.24c-1.48-.88-3.67-.24-4.65,1.41-.95,1.61-.46,3.83,1.02,4.71,1.56,.93,3.41,.67,5.4-.9,.47-2.48-.3-4.34-1.77-5.22Zm15.04,13.02c1.03-1.74,.7-4.34-1.17-5.44-1.61-.95-3.93-.69-6.1,1.19-.56,2.72,.3,4.93,1.91,5.88,1.91,1.13,4.31,.15,5.36-1.63Z"/><path class="c" d="M854.56,657.71c.09-.79,.64-1.15,1.39-1.08l4.14,.3c.63,.07,1.07,.44,.93,1.48-.31,2.47-1.01,9.53,3.26,12.67,.05-1.42,.52-3.54,1.09-4.77,1.99-4.3,7.37-7.65,14.15-4.52,5.77,2.66,8.29,9.61,5.64,15.33-3.28,7.1-10.41,8.58-17.55,5.28-13.46-6.22-13.62-20.18-13.04-24.69Zm24.23,16.58c1.12-2.43,.02-5.33-2.37-6.43-2.43-1.12-5.35-.08-6.47,2.34-1.12,2.43-.02,5.33,2.41,6.45,2.38,1.1,5.3,.06,6.43-2.37Z"/><path class="c" d="M868.55,621.45c0-.8,.52-1.21,1.27-1.22l4.15-.12c.64,0,1.11,.33,1.07,1.38-.06,2.49-.05,9.59,4.52,12.28-.1-1.42,.16-3.57,.61-4.86,1.54-4.48,6.56-8.36,13.62-5.93,6.01,2.07,9.21,8.72,7.16,14.69-2.55,7.39-9.49,9.59-16.93,7.03-14.02-4.83-15.59-18.71-15.47-23.26Zm25.79,14.06c.87-2.53-.52-5.3-3-6.16-2.53-.87-5.33,.46-6.2,2.98-.87,2.53,.52,5.3,3.05,6.17,2.48,.85,5.29-.47,6.16-3Z"/></g><path class="c" d="M500,9c66.29,0,130.59,12.98,191.12,38.58,58.47,24.73,110.98,60.13,156.07,105.23,45.09,45.1,80.5,97.61,105.23,156.07,25.6,60.53,38.58,124.83,38.58,191.11s-12.98,130.59-38.58,191.12c-24.73,58.47-60.13,110.98-105.23,156.07s-97.61,80.5-156.07,105.23c-60.53,25.6-124.83,38.58-191.12,38.58s-130.59-12.98-191.12-38.58c-58.47-24.73-110.98-60.13-156.07-105.23-45.1-45.09-80.5-97.6-105.23-156.07-25.6-60.53-38.58-124.83-38.58-191.12s12.98-130.59,38.58-191.11c24.73-58.47,60.13-110.98,105.23-156.07,45.1-45.1,97.61-80.5,156.07-105.23,60.53-25.6,124.83-38.58,191.12-38.58m0-9C223.86,0,0,223.87,0,500s223.86,500,500,500,500-223.85,500-500S776.14,0,500,0h0Z"/><path class="c" d="M500,163.5c45.43,0,89.49,8.9,130.97,26.44,40.07,16.95,76.06,41.21,106.96,72.12,30.91,30.91,55.17,66.89,72.12,106.96,17.55,41.48,26.44,85.55,26.44,130.97s-8.9,89.5-26.44,130.98c-16.95,40.07-41.21,76.06-72.12,106.96-30.91,30.91-66.9,55.17-106.96,72.12-41.48,17.54-85.54,26.44-130.97,26.44s-89.5-8.9-130.98-26.44c-40.07-16.95-76.06-41.21-106.96-72.12-30.91-30.91-55.17-66.89-72.12-106.96-17.54-41.48-26.44-85.55-26.44-130.98s8.9-89.49,26.44-130.97c16.95-40.07,41.21-76.06,72.12-106.96,30.91-30.91,66.89-55.17,106.96-72.12,41.48-17.54,85.55-26.44,130.98-26.44m0-9c-190.81,0-345.5,154.69-345.5,345.5s154.69,345.5,345.5,345.5,345.5-154.69,345.5-345.5S690.8,154.5,500,154.5h0Z"/><path class="c" d="M500,36c256.26,0,464,207.75,464,464s-207.74,464-464,464S36,756.26,36,500,243.74,36,500,36m0-9c-63.85,0-125.8,12.51-184.12,37.18-56.33,23.82-106.91,57.93-150.35,101.37-43.44,43.44-77.54,94.02-101.37,150.35-24.67,58.32-37.17,120.27-37.17,184.12s12.51,125.8,37.17,184.12c23.82,56.33,57.93,106.91,101.37,150.34,43.44,43.44,94.02,77.54,150.35,101.36,58.32,24.67,120.27,37.17,184.12,37.17s125.8-12.51,184.12-37.17c56.33-23.82,106.91-57.93,150.35-101.36,43.44-43.44,77.54-94.02,101.36-150.34,24.67-58.32,37.17-120.26,37.17-184.12s-12.51-125.8-37.17-184.12c-23.82-56.33-57.93-106.91-101.36-150.35-43.44-43.44-94.02-77.54-150.35-101.37-58.32-24.67-120.26-37.18-184.12-37.18h0Z"/></g><path class="c" d="M502,182c-175.63,0-318,142.38-318,318s142.38,318,318,318,318-142.38,318-318S677.63,182,502,182Zm278.27,267.85c.41,2.29-.96,4.54-2.99,4.9l-128.2,21.01c-1.38,0-3.16-.04-3.46-1.75l-.1-.56c-.33-1.85,1.65-2.52,2.49-2.81l127.77-24.3c2.04-.36,4.09,1.27,4.49,3.52Zm-14.89,49.82c0,2.33-1.49,4.3-3.26,4.3l-111.49-1.55c-1.17-.24-2.67-.58-2.67-2.33v-.57c0-1.88,1.77-2.2,2.53-2.34l111.62-1.77c1.77,0,3.27,1.96,3.27,4.25Zm-15.98-90.55c.8,2.19,.07,4.55-1.59,5.16l-105.3,36.68c-1.18,.17-2.7,.36-3.3-1.27l-.2-.54c-.64-1.76,.91-2.67,1.57-3.06l104.29-39.84c1.66-.61,3.74,.72,4.53,2.87Zm-8.37-53.92c1.79-1.03,4.28-.21,5.42,1.77,1.16,2.01,.65,4.59-1.14,5.62l-113.28,63.59c-1.29,.47-2.98,1.05-3.85-.46l-.29-.5c-.94-1.62,.68-2.93,1.38-3.49l111.75-66.54Zm-37.62-25.71c1.5,1.78,1.62,4.25,.27,5.39l-86.4,70.48c-1.05,.57-2.42,1.27-3.54-.07l-.37-.44c-1.21-1.44-.06-2.82,.43-3.41l84.37-73.1c1.36-1.14,3.76-.6,5.24,1.15Zm-20.5-48.22c1.78,1.49,2.18,4.1,.86,5.67l-84.7,98.5c-1.06,.88-2.44,2-3.77,.88l-.44-.37c-1.44-1.2-.36-2.99,.1-3.75l82.25-100.74c1.33-1.58,3.95-1.66,5.7-.19Zm-49.95-10.88c2.02,1.16,2.98,3.44,2.1,4.97l-57.09,95.78c-.79,.89-1.84,2.02-3.35,1.15l-.5-.29c-1.62-.94-1.02-2.63-.76-3.35l54.28-97.55c.88-1.53,3.33-1.85,5.31-.71Zm-35.65-38.54c2.19,.79,3.45,3.1,2.74,5.04l-45.9,121.53c-.69,1.19-1.61,2.71-3.25,2.12l-.54-.2c-1.76-.64-1.36-2.69-1.19-3.56l42.84-122.8c.71-1.94,3.14-2.91,5.29-2.13Zm-100.41,364.01c-28.62,0-49.46-11.2-65.35-27.07-13.98-14-26.74-36.41-26.74-63.77,0-25.84,9.65-51.66,28.62-70.96,17.43-17.12,39.52-31.74,69.08-31.74s44.81,12.13,48.84,12.13c2.49,0,5.62-2.8,11.22-12.74,.62-1.57,8.39-.94,8.39,.93-1.54,21.15-1.54,54.12-1.23,70.31,0,1.24-7.78,1.24-8.11,0-6.21-21.16-13.68-38.27-22.69-47.29-7.8-7.77-18.07-12.14-36.73-12.14-25.51,0-40.46,13.38-47.29,27.38-9.34,18.66-12.78,36.1-12.78,63.16,0,23.66,3.13,40.15,9.98,53.52,7.47,15.57,24.26,25.83,49.18,25.83,19.58,0,30.72-6.24,41.92-17.42,8.72-8.68,13.96-17.7,17.73-29.64,.47-1.48,9.45,1.61,9.14,2.84-.33,16.19-.52,32.42,1.03,53.55,0,1.89-7.79,2.51-8.4,.94-5.6-9.94-6.71-11.68-11.2-12.74-6.65-1.59-11.09,1.96-11.09,1.96l.04-.08c-10.95,8.3-23.6,13.04-43.54,13.04Zm44.9-354.42c.31-1.74,2.5-2.88,4.75-2.49,2.29,.4,3.98,2.22,3.67,3.96l-20.89,109.53c-.44,1.11-1.04,2.52-2.75,2.22l-.57-.1c-1.85-.33-1.86-2.12-1.86-2.89l17.64-110.23Zm-41.83-26.73c2.33,0,4.3,1.74,4.3,3.8l-1.66,129.9c-.24,1.36-.59,3.1-2.33,3.1h-.57c-1.87,0-2.2-2.06-2.33-2.94l-1.66-130.05c0-2.07,1.96-3.81,4.25-3.81Zm-45.37,24.26c2.29-.41,4.5,.72,4.8,2.46l17.84,110.07c-.04,1.19-.11,2.73-1.83,3.03l-.56,.1c-1.85,.33-2.47-1.36-2.74-2.08l-21.12-109.62c-.31-1.74,1.36-3.56,3.61-3.96Zm-51.96-7.09c2.19-.8,4.64,.17,5.34,2.1l42.87,122.63c.23,1.36,.51,3.11-1.13,3.71l-.54,.2c-1.76,.64-2.77-1.18-3.2-1.97l-46.04-121.64c-.71-1.94,.54-4.25,2.69-5.03Zm-34.44,38.55c2.02-1.17,4.47-.86,5.36,.67l54.4,97.33c.37,1.13,.83,2.6-.68,3.47l-.5,.29c-1.62,.94-2.79-.43-3.29-1.02l-57.34-95.78c-.89-1.53,.06-3.81,2.04-4.96Zm-51.15,10.88c1.78-1.5,4.41-1.43,5.74,.15l82.23,100.58c.68,1.19,1.54,2.75,.21,3.87l-.44,.37c-1.44,1.2-3.01-.17-3.68-.76l-84.86-98.56c-1.33-1.58-.95-4.18,.81-5.65Zm-19.28,48.23c1.5-1.79,3.91-2.34,5.26-1.2l84.41,72.85c.74,.94,1.67,2.16,.55,3.5l-.37,.44c-1.2,1.44-2.77,.55-3.44,.17l-86.64-70.4c-1.36-1.14-1.25-3.6,.22-5.36Zm-44.25,27.49c1.16-2.02,3.66-2.85,5.44-1.82l111.67,66.39c1.05,.89,2.39,2.06,1.52,3.57l-.29,.5c-.94,1.62-2.88,.87-3.72,.55l-113.45-63.59c-1.79-1.03-2.32-3.6-1.17-5.58Zm-1.72,52.15c.8-2.19,2.87-3.53,4.53-2.93l104.24,39.59c1.01,.63,2.3,1.46,1.71,3.1l-.2,.54c-.64,1.76-2.41,1.46-3.17,1.33l-105.49-36.52c-1.66-.6-2.4-2.96-1.62-5.11Zm-32.08,40.73c.4-2.29,2.46-3.93,4.49-3.57l127.64,24.19c1.29,.48,2.95,1.12,2.65,2.83l-.1,.56c-.33,1.85-2.41,1.81-3.3,1.79l-128.36-20.95c-2.03-.36-3.41-2.59-3.01-4.85Zm133.54,49.48v.57c0,1.87-1.77,2.2-2.53,2.33l-111.62,1.69c-1.77,0-3.27-1.96-3.27-4.25,0-2.33,1.5-4.3,3.26-4.3l111.49,1.63c1.17,.24,2.67,.59,2.67,2.33Zm-133.53,49.36c-.4-2.29,.97-4.54,3-4.89l128.21-20.92c1.38,0,3.16,.04,3.46,1.75l.1,.56c.33,1.85-1.65,2.52-2.49,2.81l-127.78,24.21c-2.03,.36-4.09-1.27-4.49-3.52Zm33.68,36.38l105.33-36.61c1.18-.17,2.71-.36,3.3,1.27l.2,.54c.64,1.76-.91,2.67-1.58,3.06l-104.31,39.77c-1.67,.61-3.74-.72-4.53-2.87-.8-2.19-.07-4.55,1.59-5.16Zm5.56,58.27c-1.79,1.03-4.28,.21-5.42-1.78-1.16-2.02-.64-4.59,1.14-5.62l113.33-63.51c1.3-.47,2.98-1.04,3.85,.47l.29,.5c.94,1.62-.69,2.93-1.38,3.49l-111.8,66.46Zm38.83,26.52c-1.5-1.79-1.62-4.26-.27-5.39l86.46-70.42c1.05-.56,2.42-1.26,3.54,.07l.37,.44c1.21,1.44,.06,2.82-.44,3.41l-84.42,73.04c-1.36,1.14-3.76,.6-5.24-1.15Zm19.28,47.42c-1.78-1.5-2.17-4.1-.85-5.67l84.77-98.44c1.06-.88,2.44-2,3.78-.88l.44,.37c1.44,1.2,.36,2.99-.11,3.75l-82.32,100.69c-1.33,1.58-3.95,1.66-5.7,.19Zm51.16,11.68c-2.02-1.16-2.98-3.45-2.1-4.97l57.16-95.74c.79-.89,1.84-2.02,3.35-1.15l.5,.29c1.62,.94,1.02,2.63,.76,3.35l-54.35,97.51c-.89,1.54-3.33,1.85-5.32,.71Zm39.74,35.61c-.71,1.94-3.14,2.91-5.3,2.13-2.19-.8-3.44-3.11-2.74-5.04l45.99-121.5c.69-1.19,1.61-2.71,3.25-2.12l.54,.2c1.76,.64,1.36,2.69,1.18,3.56l-42.92,122.77Zm51.43-6.65c-.31,1.75-2.5,2.88-4.75,2.48-2.29-.4-3.98-2.22-3.67-3.96l20.96-109.52c.44-1.11,1.04-2.52,2.76-2.22l.56,.1c1.85,.33,1.86,2.12,1.86,2.89l-17.72,110.22Zm40.62,25.93c-2.33,0-4.3-1.74-4.3-3.8l1.57-129.9c.24-1.36,.58-3.1,2.33-3.1h.57c1.87,0,2.2,2.06,2.33,2.94l1.75,130.05c0,2.07-1.96,3.81-4.25,3.81Zm46.58-23.46c-2.29,.4-4.5-.73-4.8-2.46l-17.76-110.08c.04-1.19,.11-2.73,1.83-3.03l.56-.1c1.85-.33,2.47,1.36,2.74,2.08l21.05,109.63c.31,1.75-1.36,3.56-3.62,3.96Zm50.76,6.28c-2.19,.8-4.64-.16-5.34-2.1l-42.95-122.6c-.24-1.36-.51-3.11,1.12-3.71l.54-.2c1.76-.64,2.77,1.18,3.2,1.97l46.12,121.61c.71,1.94-.54,4.25-2.69,5.03Zm35.65-37.74c-2.02,1.16-4.47,.85-5.35-.67l-54.34-97.37c-.37-1.13-.83-2.6,.68-3.47l.5-.29c1.62-.94,2.79,.43,3.28,1.02l57.28,95.82c.89,1.54-.06,3.81-2.04,4.96Zm49.94-11.69c-1.78,1.5-4.41,1.43-5.74-.14l-82.3-100.52c-.69-1.19-1.55-2.75-.21-3.87l.44-.37c1.43-1.21,3.01,.16,3.68,.75l84.93,98.5c1.33,1.58,.95,4.18-.8,5.65Zm20.49-47.43c-1.5,1.78-3.91,2.33-5.26,1.2l-84.37-72.91c-.74-.93-1.66-2.16-.55-3.5l.37-.44c1.2-1.44,2.77-.55,3.43-.16l86.6,70.46c1.36,1.14,1.24,3.6-.23,5.36Zm43.04-28.3c-1.16,2.02-3.66,2.86-5.44,1.83l-111.71-66.31c-1.05-.89-2.39-2.06-1.52-3.56l.29-.5c.94-1.62,2.88-.88,3.71-.55l113.5,63.51c1.79,1.03,2.32,3.6,1.18,5.58Zm2.93-51.34c-.8,2.19-2.88,3.53-4.53,2.93l-104.22-39.66c-1.01-.63-2.3-1.46-1.71-3.1l.2-.54c.64-1.76,2.41-1.46,3.17-1.33l105.47,36.59c1.67,.61,2.4,2.96,1.62,5.11Zm26.38-37.96l-127.65-24.1c-1.29-.47-2.95-1.11-2.65-2.83l.1-.57c.32-1.85,2.41-1.81,3.3-1.79l128.37,20.86c2.04,.36,3.41,2.59,3.01,4.84-.4,2.29-2.46,3.93-4.49,3.58Z"/></svg>